<?xml version="1.0" encoding="UTF-8" standalone="no"?>
<!-- Generator: Adobe Illustrator 17.1.0, SVG Export Plug-In . SVG Version: 6.00 Build 0)  -->

<svg
   xmlns:dc="http://purl.org/dc/elements/1.1/"
   xmlns:cc="http://creativecommons.org/ns#"
   xmlns:rdf="http://www.w3.org/1999/02/22-rdf-syntax-ns#"
   xmlns:svg="http://www.w3.org/2000/svg"
   xmlns="http://www.w3.org/2000/svg"
   xmlns:sodipodi="http://sodipodi.sourceforge.net/DTD/sodipodi-0.dtd"
   xmlns:inkscape="http://www.inkscape.org/namespaces/inkscape"
   version="1.1"
   id="Layer_1"
   x="0px"
   y="0px"
   width="150px"
   height="40px"
   viewBox="0 0 150 40"
   style="enable-background:new 0 0 150 40;"
   xml:space="preserve"
   inkscape:version="0.48.4 r9939"
   sodipodi:docname="cd-logo.svg"><metadata
     id="metadata13"><rdf:RDF><cc:Work
         rdf:about=""><dc:format>image/svg+xml</dc:format><dc:type
           rdf:resource="http://purl.org/dc/dcmitype/StillImage" /></cc:Work></rdf:RDF></metadata><defs
     id="defs11" /><sodipodi:namedview
     pagecolor="#ffffff"
     bordercolor="#666666"
     borderopacity="1"
     objecttolerance="10"
     gridtolerance="10"
     guidetolerance="10"
     inkscape:pageopacity="0"
     inkscape:pageshadow="2"
     inkscape:window-width="1366"
     inkscape:window-height="744"
     id="namedview9"
     showgrid="false"
     inkscape:zoom="2.4755859"
     inkscape:cx="148.75809"
     inkscape:cy="22.093486"
     inkscape:window-x="0"
     inkscape:window-y="24"
     inkscape:window-maximized="1"
     inkscape:current-layer="Layer_1" /><style
     type="text/css"
     id="style3">
	.st0{fill:#D85269;}
	.st1{fill:#454751;}
</style><circle
     class="st0"
     cx="20"
     cy="20"
     r="20"
     id="circle5" /><path
     class="st1"
     d="M 147.65265,28.942291 H 43.922068 c -1.341344,0 -2.347352,-1.006007 -2.347352,-2.235572 V 13.293281 c 0,-1.229565 1.006008,-2.235572 2.347352,-2.235572 H 147.65265 c 1.34134,0 2.34735,1.006007 2.34735,2.235572 v 13.413438 c 0,1.229565 -1.00601,2.235572 -2.34735,2.235572 z"
     id="path7"
     inkscape:connector-curvature="0"
     style="fill:#454751" /><g
     transform="matrix(0.65989674,0,0,0.65989674,3.655789,6.8053275)"
     id="g3"
     style="fill:#ffffff;fill-opacity:1"><path
       inkscape:connector-curvature="0"
       d="m 51.564,21.405 c -0.229,-2.002 -5.624,0 -5.624,0 l -0.318,2.852 C 45.503,24.191 45.386,24.128 45.259,24.069 L 43.896,18.121 C 43.398,15.287 41.259,13.205 38.143,13.31 L 21.457,13.307 c 0,0 0.883,0.97 0.922,0.97 h 16.303 c 1.818,0 3.482,1.171 3.939,3.104 l 1.465,5.874 C 43.994,23.253 43.903,23.243 43.813,23.243 H 19.436 c -0.093,0 -0.186,0.01 -0.276,0.012 l 0.763,-3.052 -0.865,-0.785 -1.067,4.652 c -0.125,0.059 -0.245,0.121 -0.362,0.188 l -0.317,-2.852 c 0,0 -1.344,-0.589 -2.743,-0.807 l 10e-4,3.688 2.771,0.149 c -1.057,0.706 -1.733,1.776 -1.733,2.983 v 5.449 c 0,1.354 0.856,2.543 2.148,3.229 v 3.663 c 0,1.238 1.529,2.244 3.419,2.244 1.889,0 3.418,-1.006 3.418,-2.244 v -3.045 h 13.484 v 3.045 c 0,1.238 1.527,2.244 3.418,2.244 1.887,0 3.418,-1.006 3.418,-2.244 v -3.399 c 1.613,-0.608 2.735,-1.942 2.735,-3.493 v -5.451 c 0,-1.207 -0.677,-2.276 -1.731,-2.981 l 5.652,-0.304 c -0.005,0 0.221,-0.72 -0.005,-2.727 z M 25.182,31.812 h -6.17 v -2.934 h 6.17 v 2.934 z m 12.471,0 H 26.446 V 30.55 h 11.207 v 1.262 z m 0,-1.573 H 26.446 v -1.262 h 11.207 v 1.262 z m 7.433,1.573 h -6.17 v -2.934 h 6.17 v 2.934 z"
       id="path5"
       style="fill:#ffffff;fill-opacity:1" /><circle
       sodipodi:ry="3.8169999"
       sodipodi:rx="3.8169999"
       sodipodi:cy="3.8169999"
       sodipodi:cx="9.2989998"
       d="m 13.116,3.8169999 c 0,2.1080709 -1.708929,3.8169999 -3.8170002,3.8169999 -2.1080709,0 -3.8169999,-1.708929 -3.8169999,-3.8169999 C 5.4819999,1.7089291 7.1909289,0 9.2989998,0 11.407071,0 13.116,1.7089291 13.116,3.8169999 z"
       cx="9.2989998"
       cy="3.8169999"
       r="3.8169999"
       id="circle7"
       style="fill:#ffffff;fill-opacity:1" /><path
       inkscape:connector-curvature="0"
       d="m 14.922,13.65 6.647,6.039 v -0.003 c 0.004,0.006 0.005,0.011 0.011,0.011 0.629,0.627 1.65,0.627 2.279,0 0.629,-0.626 0.625,-1.646 -0.002,-2.277 -0.005,0 -0.008,-0.004 -0.01,-0.011 L 17.576,11.146 C 15.566,9.066 12.935,8.865 12.935,8.865 H 5.285 C -0.194,8.97 0,12.991 0,12.991 v 9.389 h 0.006 c -0.001,0.022 -0.005,0.049 -0.005,0.066 0,0.895 0.723,1.612 1.61,1.612 0.89,0 1.61,-0.72 1.61,-1.612 0,-0.02 -0.003,-0.043 -0.005,-0.066 H 3.221 V 13.691 H 4.23 L 4.215,39.946 c 0,1.205 0.977,2.183 2.182,2.183 1.194,0 2.174,-0.978 2.174,-2.183 L 8.566,23.393 H 9.54 v 16.573 l 0.019,0.018 c 0.012,1.186 0.977,2.143 2.162,2.143 1.197,0 2.162,-0.971 2.162,-2.166 L 13.877,13.65 h 1.045 z"
       id="path9"
       style="fill:#ffffff;fill-opacity:1" /></g><text
     xml:space="preserve"
     style="font-size:10.49958134000000065px;font-style:normal;font-variant:normal;font-weight:normal;font-stretch:normal;line-height:125%;letter-spacing:0px;word-spacing:0px;fill:#ffffff;fill-opacity:1;stroke:none;font-family:Aller;-inkscape-font-specification:Aller"
     x="44.428402"
     y="22.815325"
     id="text3791"
     sodipodi:linespacing="125%"><tspan
       sodipodi:role="line"
       id="tspan3793"
       x="44.428402"
       y="22.815325">Smart Parking System</tspan></text>
</svg>